<svg width="95" height="34" viewBox="0 0 95 34" fill="none" xmlns="http://www.w3.org/2000/svg">
<g clip-path="url(#clip0_23_31891)">
<path d="M10.3664 4.25H0V29.0417L10.3664 4.25Z" fill="#4C4C4D"/>
<path d="M17.6602 4.25H28.0131V29.0417L17.6602 4.25Z" fill="#4C4C4D"/>
<path d="M14.013 13.3875L20.611 29.0419H16.2821L14.3101 24.0579H9.48145L14.013 13.3875Z" fill="#4C4C4D"/>
<path d="M44.926 20.0147L46.1484 23.5197C46.1889 23.6074 46.2497 23.648 46.3578 23.648H48.7079C48.8363 23.648 48.8565 23.5872 48.8363 23.4589L43.9806 9.97237C43.9603 9.86432 43.94 9.84406 43.832 9.84406H40.9145C40.8335 9.84406 40.7862 9.90484 40.7862 9.99263C40.7457 10.7017 40.6849 10.9178 40.5971 11.1272L36.2682 23.4386C36.2479 23.5872 36.2952 23.648 36.4168 23.648H38.5171C38.6454 23.648 38.7062 23.6074 38.7535 23.4791L39.9083 20.0147H44.926ZM40.5769 17.7253C41.2117 15.8073 42.0491 13.3491 42.3868 11.9444H42.407C42.8257 13.4166 43.8117 16.3341 44.2575 17.7253H40.5769Z" fill="#4C4C4D"/>
<path d="M55.0788 23.8567C56.3417 23.8567 57.6856 23.6271 59.0498 23.0395C59.1579 22.999 59.1781 22.9517 59.1781 22.8504C59.1376 22.4723 59.0903 21.9252 59.0903 21.5065V8.81016C59.0903 8.72912 59.0903 8.6886 58.989 8.6886H56.6996C56.6119 8.6886 56.5713 8.72912 56.5713 8.83717V13.1391C56.2134 13.0986 55.9635 13.0783 55.6664 13.0783C51.9723 13.0783 49.7031 15.5163 49.7031 18.562C49.7031 22.0941 52.033 23.8567 55.0788 23.8567ZM56.5713 21.5065C56.1931 21.6281 55.7744 21.6754 55.349 21.6754C53.6741 21.6754 52.3032 20.7299 52.3032 18.4337C52.3032 16.401 53.7146 15.1989 55.5853 15.1989C55.9635 15.1989 56.2944 15.2394 56.5713 15.3474V21.5065Z" fill="#4C4C4D"/>
<path d="M66.4796 13.0793C63.3257 13.0793 61.374 15.4971 61.374 18.4821C61.374 21.1496 62.9273 23.8577 66.4323 23.8577C69.397 23.8577 71.4771 21.6764 71.4771 18.4145C71.4771 15.5376 69.7144 13.0793 66.4796 13.0793ZM66.3513 15.1999C68.1342 15.1999 68.8905 16.7329 68.8905 18.4821C68.8905 20.6431 67.7762 21.7169 66.4796 21.7169C64.879 21.7169 63.9336 20.373 63.9336 18.4348C63.9336 16.4425 64.9398 15.1999 66.3513 15.1999Z" fill="#4C4C4D"/>
<path d="M73.8449 8.6886C73.7571 8.6886 73.6963 8.72912 73.6963 8.83717V23.2084C73.6963 23.2692 73.7571 23.3772 73.8449 23.3975C74.8511 23.7081 75.9046 23.8567 76.9919 23.8567C80.1052 23.8567 83.1307 21.9252 83.1307 18.0353C83.1307 15.2191 81.1993 13.0783 78.1738 13.0783C77.4782 13.0783 76.8299 13.1864 76.2626 13.3754L76.2356 8.85743C76.2356 8.70886 76.195 8.6886 76.0465 8.6886H73.8449ZM80.5442 18.2919C80.5442 20.6218 78.9504 21.7159 77.2283 21.7159C76.8704 21.7159 76.553 21.6956 76.2626 21.6078V15.4757C76.5935 15.3474 76.9919 15.2394 77.7281 15.2394C79.3894 15.2394 80.5442 16.2929 80.5442 18.2919Z" fill="#4C4C4D"/>
<path d="M91.6753 19.0493C92.7018 19.0493 93.546 19.0291 93.8364 18.9615C93.9444 18.9413 93.985 18.9008 94.0052 18.813C94.066 18.5834 94.093 18.1039 94.093 17.5163C94.093 15.5173 92.8909 13.0793 89.7844 13.0793C86.6103 13.0793 84.8477 15.6659 84.8477 18.5834C84.8477 21.1699 86.2118 23.8577 90.0343 23.8577C91.466 23.8577 92.3912 23.6281 93.1881 23.2499C93.2691 23.2094 93.3096 23.1419 93.3096 23.0203V21.2712C93.3096 21.1699 93.2488 21.1496 93.1881 21.1902C92.3912 21.5278 91.5267 21.6967 90.5813 21.6967C88.4405 21.6967 87.468 20.5148 87.4072 19.0493H91.6753ZM87.4072 17.2394C87.576 16.2129 88.2243 15.0986 89.6763 15.0986C91.2769 15.0986 91.6956 16.4425 91.6956 17.0503C91.6956 17.0706 91.6956 17.1584 91.6956 17.2192C91.6078 17.2394 91.3376 17.2394 90.5407 17.2394H87.4072Z" fill="#4C4C4D"/>
</g>
<defs>
<clipPath id="clip0_23_31891">
<rect width="94.2083" height="34" fill="white"/>
</clipPath>
</defs>
</svg>
