<svg width="79" height="34" viewBox="0 0 79 34" fill="none" xmlns="http://www.w3.org/2000/svg">
<g clip-path="url(#clip0_23_31932)">
<path d="M10.7678 25.8803C9.58498 26.088 8.38136 26.1503 7.13627 26.3161L3.33857 15.1932V26.7935C2.15575 26.918 1.07667 27.084 -0.0439453 27.25V6H3.11044L7.42675 18.0571V6H10.7678V25.8803ZM17.3047 13.782C18.5914 13.782 20.5628 13.7197 21.7456 13.7197V17.04C20.2722 17.04 18.5499 17.04 17.3047 17.1022V22.0413C19.2555 21.9168 21.2061 21.7506 23.1775 21.6884V24.884L13.9843 25.6105V6H23.1775V9.32032H17.3047V13.782ZM35.5249 9.32039H32.0801V24.5938C30.9595 24.5938 29.8388 24.5938 28.7599 24.6352V9.32039H25.3151V6H35.525L35.5249 9.32039ZM40.9203 13.5538H45.4651V16.874H40.9203V24.4071H37.6621V6H46.9385V9.32032H40.9203V13.5538ZM52.3339 21.5017C54.2224 21.5431 56.1315 21.6886 57.9785 21.7922V25.071C55.011 24.8841 52.0434 24.6976 49.0137 24.6352V6H52.3339V21.5017ZM60.78 25.2993C61.8383 25.3617 62.9589 25.4239 64.038 25.5483V6H60.78V25.2993ZM78.5853 6L74.3725 16.1062L78.5853 27.25C77.34 27.084 76.0949 26.8557 74.8497 26.6481L72.4634 20.5057L70.0356 26.1503C68.8318 25.9426 67.6697 25.8803 66.4663 25.7143L70.7411 15.9816L66.8812 6H70.4504L72.6293 11.5823L74.9536 6L78.5853 6Z" fill="#4C4C4D"/>
</g>
<defs>
<clipPath id="clip0_23_31932">
<rect width="78.625" height="34" fill="white"/>
</clipPath>
</defs>
</svg>
