<svg width="100" height="34" viewBox="0 0 100 34" fill="none" xmlns="http://www.w3.org/2000/svg">
<g clip-path="url(#clip0_23_31881)">
<path d="M14.929 2.18079C6.71378 2.18079 0.0537109 8.84067 0.0537109 17.0559C0.0537109 25.2714 6.71378 31.9308 14.929 31.9308C23.1451 31.9308 29.8044 25.2714 29.8044 17.0559C29.8044 8.8412 23.1453 2.18079 14.929 2.18079ZM21.7507 23.6349C21.4843 24.0719 20.9123 24.2105 20.4753 23.9422C16.9827 21.8089 12.586 21.3257 7.40813 22.5088C6.90917 22.6224 6.4118 22.3098 6.29812 21.8107C6.1839 21.3115 6.49529 20.8142 6.9955 20.7005C12.6619 19.4059 17.5224 19.9633 21.4434 22.3596C21.8804 22.6278 22.0189 23.198 21.7507 23.6349ZM23.5714 19.5846C23.2357 20.1303 22.5216 20.3026 21.9763 19.9669C17.9778 17.5092 11.8828 16.7974 7.15341 18.233C6.54005 18.4183 5.89224 18.0726 5.70608 17.4603C5.52134 16.847 5.86719 16.2004 6.47948 16.0139C11.8817 14.3747 18.5978 15.1687 23.1895 17.9904C23.7348 18.3261 23.9071 19.04 23.5714 19.5846ZM23.7277 15.367C18.9335 12.5194 11.0236 12.2576 6.44626 13.6468C5.71123 13.8697 4.93392 13.4548 4.71117 12.7197C4.48842 11.9844 4.90301 11.2076 5.63858 10.9841C10.8931 9.38901 19.628 9.6972 25.1477 12.9739C25.8103 13.3663 26.027 14.2202 25.6344 14.8804C25.2436 15.5416 24.3867 15.7595 23.7277 15.367ZM40.5244 15.9126C37.9559 15.3002 37.4994 14.8703 37.4994 13.9671C37.4994 13.1137 38.3023 12.5395 39.4977 12.5395C40.6559 12.5395 41.8034 12.9755 43.0077 13.8733C43.0432 13.9005 43.0894 13.9113 43.1338 13.9042C43.18 13.8974 43.2191 13.8727 43.2457 13.8356L44.4998 12.0678C44.5513 11.995 44.5371 11.8947 44.4678 11.8391C43.0343 10.6893 41.4215 10.1303 39.535 10.1303C36.7622 10.1303 34.8243 11.7945 34.8243 14.1756C34.8243 16.729 36.4958 17.6332 39.384 18.3311C41.8407 18.8972 42.2563 19.3715 42.2563 20.2191C42.2563 21.1588 41.4179 21.7432 40.0679 21.7432C38.5687 21.7432 37.3448 21.2369 35.9771 20.0539C35.9433 20.0237 35.8972 20.0113 35.8545 20.0131C35.8083 20.0166 35.7675 20.0379 35.7391 20.0717L34.3322 21.7449C34.2736 21.816 34.2807 21.919 34.3482 21.9794C35.9398 23.4005 37.8973 24.1501 40.0111 24.1501C42.9988 24.1501 44.9296 22.5176 44.9296 19.99C44.935 17.8572 43.6578 16.6759 40.5298 15.915L40.5244 15.9126ZM51.6903 13.3796C50.3953 13.3796 49.3331 13.8898 48.4556 14.9352V13.7585C48.4556 13.6656 48.381 13.59 48.2886 13.59H45.9883C45.896 13.59 45.8214 13.6656 45.8214 13.7585V26.8323C45.8214 26.9246 45.896 27.001 45.9883 27.001H48.2886C48.381 27.001 48.4556 26.9246 48.4556 26.8323V22.7059C49.3331 23.6882 50.3953 24.1696 51.6903 24.1696C54.0971 24.1696 56.5342 22.3169 56.5342 18.7752C56.5378 15.2327 54.1007 13.3795 51.692 13.3795L51.6903 13.3796ZM53.8591 18.7752C53.8591 20.5779 52.7489 21.8373 51.1574 21.8373C49.5853 21.8373 48.3988 20.5211 48.3988 18.7752C48.3988 17.0291 49.5853 15.7132 51.1574 15.7132C52.7223 15.713 53.8591 17.0006 53.8591 18.7752ZM62.7779 13.3796C59.6783 13.3796 57.2501 15.7663 57.2501 18.8137C57.2501 21.8284 59.6623 24.1891 62.7406 24.1891C65.8509 24.1891 68.2862 21.8107 68.2862 18.7752C68.2862 15.7499 65.8669 13.3796 62.7779 13.3796ZM62.7779 21.8551C61.1295 21.8551 59.8861 20.53 59.8861 18.7743C59.8861 17.0106 61.0869 15.7308 62.7406 15.7308C64.3997 15.7308 65.6502 17.0553 65.6502 18.8128C65.6502 20.5761 64.4423 21.8551 62.7779 21.8551ZM74.9047 13.59H72.3735V11.0026C72.3735 10.9099 72.2989 10.8342 72.2065 10.8342H69.9062C69.8139 10.8342 69.7375 10.9099 69.7375 11.0026V13.59H68.6326C68.5402 13.59 68.4656 13.6656 68.4656 13.7585V15.735C68.4656 15.8277 68.5402 15.9036 68.6326 15.9036H69.7375V21.0184C69.7375 23.0843 70.766 24.1323 72.7963 24.1323C73.6205 24.1323 74.3043 23.9618 74.9491 23.5959C75.0024 23.5674 75.0344 23.5106 75.0344 23.4502V21.5673C75.0344 21.5105 75.0042 21.4554 74.9545 21.4252C74.9047 21.3932 74.8426 21.3915 74.791 21.4181C74.3487 21.6402 73.9207 21.7432 73.4411 21.7432C72.7039 21.7432 72.3735 21.4075 72.3735 20.6579V15.9045H74.9047C74.9971 15.9045 75.0717 15.8288 75.0717 15.7359V13.7596C75.0753 13.6667 75.0007 13.591 74.9065 13.591L74.9047 13.59ZM83.7223 13.6001V13.2823C83.7223 12.3474 84.0811 11.9305 84.884 11.9305C85.3636 11.9305 85.7491 12.0258 86.1807 12.1696C86.234 12.1863 86.289 12.178 86.3317 12.1462C86.3761 12.1144 86.4009 12.0634 86.4009 12.0094V10.0715C86.4009 9.99739 86.3548 9.93185 86.2819 9.91C85.8272 9.77447 85.2446 9.63538 84.3706 9.63538C82.248 9.63538 81.1236 10.8315 81.1236 13.0933V13.58H80.0187C79.9263 13.58 79.85 13.6557 79.85 13.7484V15.735C79.85 15.8277 79.9263 15.9036 80.0187 15.9036H81.1236V23.7912C81.1236 23.8854 81.1999 23.96 81.2923 23.96H83.5908C83.685 23.96 83.7596 23.8854 83.7596 23.7912V15.9041H85.9071L89.1969 23.7912C88.8238 24.619 88.4561 24.7842 87.9552 24.7842C87.5502 24.7842 87.1221 24.6634 86.6869 24.4236C86.6461 24.4023 86.5964 24.3987 86.5537 24.4112C86.5093 24.4272 86.472 24.4591 86.4542 24.5018L85.6744 26.2123C85.6371 26.2941 85.6691 26.3882 85.7473 26.4308C86.5608 26.8714 87.2944 27.0596 88.2021 27.0596C89.9003 27.0596 90.8399 26.2674 91.6659 24.1394L95.6555 13.8303C95.6768 13.7784 95.6697 13.7198 95.6377 13.6738C95.6075 13.6281 95.556 13.6006 95.5009 13.6006H93.1065C93.0337 13.6006 92.9697 13.6463 92.9466 13.7136L90.4936 20.7182L87.8078 13.709C87.7829 13.6438 87.7207 13.6006 87.6515 13.6006L83.7223 13.6001ZM78.6101 13.59H76.3098C76.2174 13.59 76.141 13.6656 76.141 13.7585V23.7912C76.141 23.8854 76.2174 23.96 76.3098 23.96H78.6101C78.7025 23.96 78.7788 23.8854 78.7788 23.7912V13.7592C78.7788 13.6663 78.7042 13.59 78.6101 13.59ZM77.4733 9.02149C76.562 9.02149 75.8231 9.75901 75.8231 10.6701C75.8231 11.5817 76.562 12.3201 77.4733 12.3201C78.3845 12.3201 79.1217 11.5817 79.1217 10.6701C79.1217 9.75919 78.3827 9.02149 77.4733 9.02149ZM97.6201 16.8159C96.7106 16.8159 96.0019 16.0849 96.0019 15.1973C96.0019 14.3097 96.7195 13.5704 97.629 13.5704C98.5384 13.5704 99.2472 14.3012 99.2472 15.1881C99.2472 16.0757 98.5295 16.8159 97.6201 16.8159ZM97.629 13.7314C96.7994 13.7314 96.1724 14.3904 96.1724 15.1973C96.1724 16.004 96.7959 16.6541 97.6201 16.6541C98.4496 16.6541 99.0766 15.9956 99.0766 15.1881C99.0766 14.3815 98.4532 13.7314 97.629 13.7314ZM97.9878 15.3545L98.446 15.9954H98.0588L97.6467 15.4075H97.2932V15.9954H96.9699V14.2966H97.7266C98.1228 14.2966 98.3821 14.4985 98.3821 14.8385C98.3839 15.117 98.2222 15.2872 97.9895 15.3545H97.9878ZM97.7142 14.5881H97.2932V15.1254H97.7142C97.9238 15.1254 98.0499 15.0225 98.0499 14.8565C98.0499 14.6817 97.9238 14.5881 97.7142 14.5881Z" fill="#4C4C4D"/>
</g>
<defs>
<clipPath id="clip0_23_31881">
<rect width="99.1667" height="34" fill="white"/>
</clipPath>
</defs>
</svg>
