<svg width="68" height="34" viewBox="0 0 68 34" fill="none" xmlns="http://www.w3.org/2000/svg">
<g clip-path="url(#clip0_23_31878)">
<path d="M0.000976562 25.0715L6.9812 14.2101H0.827876C0.775729 13.8972 0.753381 13.5545 0.753381 13.1746C0.753381 12.8095 0.775729 12.4743 0.827876 12.1689H10.7879L10.9146 12.5041L3.88219 23.3879H10.475C10.5272 23.7306 10.5495 24.0882 10.5495 24.4457C10.5495 24.7884 10.5272 25.1162 10.475 25.4291H0.127619L0.000976562 25.0715Z" fill="#4C4C4D"/>
<path d="M20.1446 16.6909C20.1446 15.6703 19.8839 14.97 19.3698 14.5678C18.8558 14.1729 18.1034 13.9718 17.1201 13.9718C16.5167 13.9718 15.9505 14.0165 15.429 14.1134C14.9001 14.2102 14.3935 14.3294 13.887 14.4858C13.5592 13.9197 13.3953 13.2343 13.3953 12.4447C13.9838 12.2584 14.6245 12.1094 15.3322 12.0051C16.0399 11.9008 16.7178 11.8487 17.3734 11.8487C19.0942 11.8487 20.4053 12.2435 21.3067 13.0257C22.2007 13.8079 22.6551 15.0669 22.6551 16.7877V25.0865C22.0517 25.2206 21.3216 25.3696 20.4575 25.5112C19.5933 25.6602 18.7143 25.7272 17.8203 25.7272C16.9785 25.7272 16.2112 25.6527 15.5333 25.4963C14.8554 25.3398 14.2744 25.094 13.7976 24.7439C13.3208 24.4012 12.9558 23.9617 12.6951 23.4253C12.4343 22.8889 12.3077 22.2408 12.3077 21.4884C12.3077 20.7509 12.4567 20.0953 12.7621 19.5366C13.0601 18.9779 13.4698 18.5086 13.9913 18.1436C14.5053 17.7711 15.1013 17.4954 15.7792 17.3167C16.4496 17.1379 17.1573 17.041 17.9023 17.041C18.4536 17.041 18.908 17.0559 19.2581 17.0783C19.6082 17.1006 19.9062 17.1379 20.1521 17.1677V16.6909H20.1446ZM20.1446 19.2014C19.8839 19.1641 19.5561 19.1343 19.1613 19.0971C18.7664 19.0599 18.4312 19.045 18.1556 19.045C17.0828 19.045 16.2708 19.2461 15.7121 19.6409C15.1534 20.0357 14.8703 20.6392 14.8703 21.4512C14.8703 21.9652 14.9672 22.3749 15.1534 22.6654C15.3396 22.956 15.578 23.1795 15.8611 23.3359C16.1442 23.4923 16.4571 23.5892 16.8072 23.619C17.1499 23.6562 17.4777 23.6711 17.7905 23.6711C18.1854 23.6711 18.5951 23.6488 19.0197 23.6041C19.4443 23.5594 19.8168 23.4998 20.1446 23.4104V19.2014Z" fill="#4C4C4D"/>
<path d="M25.4486 12.1694C25.62 12.1322 25.7987 12.1098 25.9775 12.0949C26.1563 12.08 26.3426 12.0726 26.5363 12.0726C26.7076 12.0726 26.8864 12.08 27.0801 12.0949C27.2663 12.1098 27.4525 12.1396 27.6239 12.1694C27.6388 12.2067 27.6611 12.311 27.6909 12.4898C27.7133 12.6686 27.7431 12.8622 27.7654 13.0708C27.7878 13.2794 27.8176 13.4731 27.8399 13.6668C27.8623 13.8605 27.8772 13.9797 27.8772 14.0318C28.0485 13.7562 28.2571 13.488 28.4955 13.2273C28.7339 12.9665 29.0244 12.7356 29.3596 12.527C29.6949 12.3184 30.0748 12.1545 30.4994 12.0353C30.924 11.9162 31.3934 11.8566 31.9074 11.8566C32.6821 11.8566 33.4047 11.9832 34.0677 12.2439C34.7308 12.5047 35.2969 12.8995 35.7737 13.4433C36.2505 13.9871 36.6155 14.6799 36.8837 15.5143C37.1519 16.3486 37.2859 17.3394 37.2859 18.4792C37.2859 20.7588 36.6676 22.5392 35.4385 23.8205C34.2018 25.1019 32.4586 25.75 30.2014 25.75C29.8215 25.75 29.4341 25.7276 29.0393 25.6755C28.6445 25.6233 28.2943 25.5563 28.0038 25.4669V31.5457C27.7952 31.583 27.5792 31.6053 27.3408 31.6202C27.1099 31.6351 26.8938 31.6426 26.7076 31.6426C26.5214 31.6426 26.3053 31.6351 26.0744 31.6202C25.8434 31.6053 25.6274 31.5755 25.4412 31.5457V12.1694H25.4486ZM28.0113 23.2618C28.339 23.381 28.6743 23.4704 29.017 23.5226C29.3596 23.5747 29.8066 23.597 30.3653 23.597C30.9836 23.597 31.5572 23.5002 32.0713 23.2991C32.5853 23.0979 33.0323 22.7925 33.4047 22.3828C33.7772 21.9656 34.0677 21.4441 34.2838 20.8184C34.4998 20.1926 34.6041 19.4402 34.6041 18.5835C34.6041 17.2053 34.3508 16.1102 33.8443 15.2982C33.3377 14.4862 32.5033 14.084 31.3487 14.084C30.9166 14.084 30.5069 14.1585 30.1046 14.3149C29.7098 14.4713 29.3522 14.7023 29.0468 15.0152C28.7339 15.328 28.488 15.7154 28.2943 16.1922C28.1007 16.669 28.0113 17.2277 28.0113 17.8832V23.2618Z" fill="#4C4C4D"/>
<path d="M40.4743 14.1803H38.7907C38.7535 14.0387 38.7311 13.8823 38.7162 13.7035C38.7014 13.5247 38.6939 13.3459 38.6939 13.1746C38.6939 13.0032 38.7014 12.8244 38.7162 12.6456C38.7311 12.4669 38.7609 12.303 38.7907 12.1689H42.9848V25.4365C42.7986 25.4738 42.5826 25.4961 42.3516 25.511C42.1207 25.5259 41.9047 25.5334 41.7184 25.5334C41.5471 25.5334 41.3459 25.5259 41.1075 25.511C40.8766 25.4961 40.6606 25.4663 40.4743 25.4365V14.1803Z" fill="#4C4C4D"/>
<path d="M48.49 19.4325C48.5273 20.8777 48.8998 21.943 49.6149 22.6135C50.3301 23.2839 51.3879 23.6192 52.781 23.6192C54.0027 23.6192 55.1723 23.4031 56.2748 22.9711C56.4164 23.2318 56.5281 23.5447 56.61 23.9171C56.6994 24.2896 56.7441 24.6546 56.7665 25.0197C56.2003 25.2581 55.5746 25.4443 54.8892 25.5635C54.2113 25.6827 53.4514 25.7423 52.6245 25.7423C51.4177 25.7423 50.3822 25.5709 49.5181 25.2357C48.6539 24.9005 47.9462 24.4237 47.3875 23.8129C46.8288 23.202 46.4191 22.4794 46.1583 21.6376C45.8976 20.8032 45.771 19.8869 45.771 18.8813C45.771 17.8979 45.8976 16.9816 46.1434 16.1249C46.3893 15.2682 46.7766 14.5307 47.2907 13.8975C47.8047 13.2717 48.4602 12.7652 49.2424 12.4001C50.0247 12.0277 50.9558 11.8414 52.0211 11.8414C52.9374 11.8414 53.7345 11.9979 54.4273 12.3107C55.1201 12.6236 55.6938 13.0483 56.1631 13.5921C56.6249 14.1359 56.9825 14.784 57.2209 15.529C57.4593 16.2814 57.5859 17.0934 57.5859 17.9724C57.5859 18.2108 57.5785 18.4715 57.5561 18.7323C57.5412 19.0004 57.5189 19.2314 57.504 19.4176H48.49V19.4325ZM55.0605 17.518C55.0605 17.0338 54.9935 16.5719 54.8669 16.1324C54.7402 15.6928 54.5465 15.3129 54.3007 14.9851C54.0474 14.6574 53.7345 14.3966 53.3471 14.1955C52.9598 13.9943 52.4979 13.8975 51.9615 13.8975C50.9111 13.8975 50.1066 14.2178 49.5404 14.851C48.9817 15.4917 48.639 16.3782 48.5198 17.518H55.0605Z" fill="#4C4C4D"/>
<path d="M60.4168 12.1689C60.6031 12.1316 60.7893 12.1093 60.9606 12.0944C61.132 12.0795 61.3108 12.072 61.5044 12.072C61.6907 12.072 61.8844 12.0795 62.0706 12.0944C62.2569 12.1093 62.4356 12.1391 62.5846 12.1689C62.6368 12.4296 62.6889 12.7648 62.7411 13.1895C62.7932 13.6141 62.8156 13.9717 62.8156 14.2622C63.1806 13.6737 63.6574 13.1671 64.2533 12.735C64.8493 12.303 65.6091 12.0869 66.5403 12.0869C66.6819 12.0869 66.8234 12.0944 66.965 12.1018C67.114 12.1093 67.2332 12.1242 67.3374 12.1391C67.3747 12.2955 67.397 12.4594 67.4119 12.6307C67.4268 12.8021 67.4343 12.9809 67.4343 13.1746C67.4343 13.3832 67.4194 13.5992 67.397 13.8227C67.3747 14.0462 67.3374 14.2622 67.3076 14.4708C67.1661 14.4335 67.0246 14.4186 66.883 14.4186C66.734 14.4186 66.6223 14.4186 66.5329 14.4186C66.071 14.4186 65.624 14.4857 65.1994 14.6123C64.7748 14.739 64.3949 14.9699 64.0596 15.2977C63.7244 15.6255 63.4562 16.0724 63.2551 16.6461C63.054 17.2122 62.9571 17.9497 62.9571 18.8437V25.4365C62.7709 25.4738 62.5548 25.4961 62.3239 25.511C62.093 25.5259 61.8769 25.5334 61.6907 25.5334C61.5044 25.5334 61.2884 25.5259 61.0575 25.511C60.8265 25.4961 60.6031 25.4663 60.3945 25.4365V12.1689H60.4168Z" fill="#4C4C4D"/>
<path d="M45.4207 4.36204H42.9177L44.6907 2.58905C44.5491 2.39536 44.3927 2.20912 44.2288 2.03778C44.0575 1.86644 43.8787 1.71 43.6775 1.57591L41.9046 3.3489V0.845851C41.6736 0.808604 41.4352 0.786255 41.1894 0.786255H41.1819C40.9361 0.786255 40.6977 0.808604 40.4668 0.845851V3.3489L38.6938 1.57591C38.5001 1.71745 38.3139 1.87389 38.1425 2.03778C37.9712 2.20912 37.8222 2.38791 37.6807 2.58905L39.4611 4.36204H36.958C36.958 4.36204 36.8985 4.83136 36.8985 5.0772C36.8985 5.32303 36.9208 5.56142 36.958 5.79235H39.4611L37.6881 7.56534C37.9637 7.95272 38.3064 8.2954 38.7012 8.57848L40.4742 6.80549V9.30854C40.7052 9.34579 40.9436 9.36814 41.1894 9.36814H41.1968C41.4427 9.36814 41.6811 9.34579 41.912 9.30854V6.80549L43.685 8.57848C43.8787 8.43694 44.0649 8.2805 44.2363 8.11661C44.4076 7.94527 44.564 7.76648 44.6981 7.56534L42.9251 5.79235H45.4282C45.4654 5.56142 45.4878 5.32303 45.4878 5.0772V5.06975C45.4803 4.83136 45.4654 4.59297 45.4207 4.36204ZM42.2621 5.08464C42.2621 5.40498 42.2025 5.71041 42.0982 5.99349C41.8152 6.09778 41.5097 6.15738 41.1894 6.15738C40.8691 6.15738 40.5636 6.09778 40.2805 5.99349C40.1763 5.71041 40.1167 5.40498 40.1167 5.08464V5.0772C40.1167 4.75686 40.1763 4.45143 40.2805 4.16835C40.5636 4.06406 40.8691 4.00446 41.1894 4.00446C41.5097 4.00446 41.8152 4.06406 42.0982 4.16835C42.2025 4.45143 42.2621 4.75686 42.2621 5.08464Z" fill="#4C4C4D"/>
</g>
<defs>
<clipPath id="clip0_23_31878">
<rect width="68" height="34" fill="white"/>
</clipPath>
</defs>
</svg>
