<svg width="70" height="34" viewBox="0 0 70 34" fill="none" xmlns="http://www.w3.org/2000/svg">
<g clip-path="url(#clip0_23_31884)">
<path fill-rule="evenodd" clip-rule="evenodd" d="M56.4593 14.5915C56.7244 15.0488 56.8111 15.5691 56.8397 16.1541L56.8773 16.9337V22.3856L56.9158 23.1661C56.9927 24.4407 57.9327 25.3832 59.2171 25.4633L59.9935 25.5018V16.9337L60.032 16.1541C60.0639 15.5757 60.1498 15.0455 60.4189 14.585C60.6932 14.1125 61.0869 13.7206 61.5606 13.4484C62.0343 13.1763 62.5712 13.0335 63.1174 13.0345C63.6637 13.0355 64.2001 13.1802 64.6728 13.4541C65.1454 13.728 65.5377 14.1213 65.8103 14.5948C66.0753 15.0521 66.158 15.5822 66.1899 16.1541L66.2283 16.9313V22.3856L66.2668 23.1661C66.347 24.4473 67.2796 25.3897 68.5681 25.4633L69.3445 25.5018V16.1541C69.3445 14.5012 68.688 12.9159 67.5195 11.7469C66.3509 10.5778 64.7659 9.92075 63.113 9.9201C62.2283 9.91916 61.3536 10.107 60.5473 10.4712C59.741 10.8353 59.0217 11.3673 58.4375 12.0316C57.853 11.3676 57.1337 10.8357 56.3274 10.4715C55.5212 10.1072 54.6467 9.91897 53.762 9.91928C52.4677 9.91928 51.2668 10.312 50.2719 10.9902C49.6649 10.3128 48.3068 9.91928 47.5272 9.91928V25.5018L48.3069 25.4633C49.6109 25.3774 50.5534 24.4603 50.6041 23.1661L50.6458 22.3856V16.9337L50.6843 16.1541C50.717 15.5659 50.7988 15.0488 51.0647 14.5882C51.3392 14.1161 51.7327 13.7242 52.206 13.4517C52.6794 13.1793 53.2159 13.0357 53.762 13.0355C54.3085 13.0356 54.8455 13.1794 55.3189 13.4525C55.7923 13.7256 56.1856 14.1184 56.4593 14.5915ZM3.11618 25.4642L3.89583 25.5018H15.5825L15.5441 24.7246C15.4385 23.4434 14.5312 22.5075 13.246 22.4241L12.4663 22.3856H5.45515L14.8029 13.0346L14.7644 12.2583C14.7039 10.964 13.7581 10.0289 12.4663 9.95773L11.6867 9.92255L0 9.91928L0.0384511 10.6989C0.140715 11.9678 1.06109 12.9234 2.3357 12.997L3.11618 13.0355H10.1274L0.779657 22.3864L0.818108 23.1661C0.895011 24.4505 1.82193 25.3807 3.11618 25.4633V25.4642ZM44.4683 12.2002C45.1919 12.9236 45.7659 13.7826 46.1576 14.7279C46.5492 15.6732 46.7508 16.6865 46.7508 17.7097C46.7508 18.733 46.5492 19.7462 46.1576 20.6915C45.7659 21.6369 45.1919 22.4958 44.4683 23.2193C43.0063 24.68 41.0242 25.5006 38.9575 25.5006C36.8908 25.5006 34.9087 24.68 33.4467 23.2193C30.4042 20.1767 30.4042 15.2427 33.4467 12.2002C34.1697 11.4769 35.028 10.9032 35.9727 10.5117C36.9174 10.1202 37.93 9.91862 38.9526 9.91846C39.9769 9.91775 40.9912 10.119 41.9377 10.5106C42.8841 10.9023 43.744 11.4767 44.4683 12.201V12.2002ZM42.2635 14.4066C43.1399 15.2836 43.6321 16.4727 43.6321 17.7126C43.6321 18.9524 43.1399 20.1415 42.2635 21.0186C41.3865 21.8949 40.1973 22.3872 38.9575 22.3872C37.7177 22.3872 36.5286 21.8949 35.6515 21.0186C34.7752 20.1415 34.2829 18.9524 34.2829 17.7126C34.2829 16.4727 34.7752 15.2836 35.6515 14.4066C36.5286 13.5302 37.7177 13.038 38.9575 13.038C40.1973 13.038 41.3865 13.5302 42.2635 14.4066ZM22.6002 9.91846C23.6229 9.91873 24.6355 10.1204 25.5802 10.5121C26.5249 10.9037 27.3832 11.4776 28.1061 12.201C31.1495 15.2427 31.1495 20.1775 28.1061 23.2193C26.6442 24.68 24.662 25.5006 22.5953 25.5006C20.5287 25.5006 18.5465 24.68 17.0846 23.2193C14.042 20.1767 14.042 15.2427 17.0846 12.2002C17.8075 11.4769 18.6659 10.9032 19.6106 10.5117C20.5553 10.1202 21.5678 9.91862 22.5904 9.91846H22.6002ZM25.9013 14.405C26.7779 15.282 27.2704 16.4713 27.2704 17.7114C27.2704 18.9514 26.7779 20.1407 25.9013 21.0177C25.0243 21.8941 23.8352 22.3864 22.5953 22.3864C21.3555 22.3864 20.1664 21.8941 19.2894 21.0177C18.413 20.1407 17.9207 18.9516 17.9207 17.7118C17.9207 16.4719 18.413 15.2828 19.2894 14.4058C20.1664 13.5294 21.3555 13.0371 22.5953 13.0371C23.8352 13.0371 25.0243 13.5294 25.9013 14.4058V14.405Z" fill="#4C4C4D"/>
</g>
<defs>
<clipPath id="clip0_23_31884">
<rect width="69.4166" height="34" fill="white"/>
</clipPath>
</defs>
</svg>
