<svg width="16" height="13" viewBox="0 0 16 13" fill="none" xmlns="http://www.w3.org/2000/svg">
<path d="M5.03273 13.0013C6.26119 13.0091 7.47897 12.7728 8.61542 12.3062C9.75187 11.8397 10.7844 11.1521 11.653 10.2835C12.5217 9.41479 13.2093 8.38229 13.6758 7.24584C14.1424 6.10939 14.3786 4.89162 14.3709 3.66315V3.23406C15.0077 2.76751 15.5589 2.19419 16 1.53952C15.4004 1.80177 14.7659 1.9757 14.1164 2.05588C14.805 1.64554 15.3217 0.999637 15.5709 0.237697C14.9291 0.622745 14.2253 0.893432 13.4909 1.0377C12.9963 0.510691 12.3418 0.161374 11.6287 0.0437959C10.9156 -0.0737821 10.1836 0.0469331 9.54599 0.387264C8.90839 0.727594 8.40072 1.26857 8.10153 1.92648C7.80234 2.58439 7.72832 3.32257 7.89091 4.02679C6.5862 3.96275 5.30961 3.62462 4.14426 3.03443C2.97891 2.44424 1.95094 1.61521 1.12727 0.601333C0.711944 1.32219 0.586056 2.17393 0.775098 2.98411C0.96414 3.79429 1.45399 4.50237 2.14545 4.96497C1.63535 4.9453 1.13706 4.80577 0.690909 4.5577V4.59406C0.686376 5.34739 0.940161 6.07953 1.40997 6.66844C1.87977 7.25735 2.53722 7.66746 3.27273 7.83042C2.79828 7.95803 2.3013 7.97791 1.81818 7.88861C2.03112 8.53107 2.43759 9.09193 2.98185 9.49427C3.52612 9.89661 4.18152 10.1207 4.85818 10.1359C3.70124 11.0672 2.26334 11.5798 0.778182 11.5904C0.517784 11.5829 0.257998 11.561 0 11.525C1.50324 12.4827 3.25033 12.9877 5.03273 12.9795" fill="#000"/>
</svg>
